<svg width="48" height="57" viewBox="0 0 48 57" fill="none" xmlns="http://www.w3.org/2000/svg">
<g filter="url(#filter0_d_1_766)">
<path fill-rule="evenodd" clip-rule="evenodd" d="M21.1136 2.93452H20.977C20.7671 2.92181 20.5571 2.91672 20.3471 2.91163H20.3471H20.3269H19.8918C19.4946 2.91163 19.0898 2.92181 18.6876 2.94215C18.6573 2.93994 18.6269 2.93994 18.5966 2.94215C14.9522 3.14863 11.3817 4.05951 8.08049 5.62492L7.6479 5.83344V27.9746L8.65979 27.6313C9.54773 27.3261 10.4938 27.0515 11.4728 26.7972C14.1193 26.1178 16.8367 25.7567 19.568 25.7216V28.6306C19.2062 28.6332 18.8546 28.6434 18.503 28.6612H18.4195C16.3175 28.7765 14.2317 29.0967 12.1913 29.6173C9.60716 30.2643 7.11433 31.2357 4.77161 32.5086V4.11189C7.20469 2.69275 9.82533 1.62687 12.5556 0.945963C14.9527 0.327052 17.4169 0.00930695 19.8918 0H20.3193C20.8303 0.0127146 21.3287 0.0356008 21.7967 0.0712015C23.0297 0.157776 24.2528 0.352628 25.4521 0.653528V3.51685C24.2874 3.24551 23.1032 3.06695 21.9105 2.98284C21.8863 2.98079 21.8621 2.97872 21.8379 2.97666C21.5911 2.95561 21.344 2.93452 21.1136 2.93452ZM26.1528 5.86138C26.7877 5.9097 27.4455 5.93259 28.1108 5.93259C30.7125 5.92307 33.3031 5.59083 35.8239 4.94339C38.4068 4.29396 40.8986 3.32178 43.2411 2.04956V29.9402C40.8067 31.3585 38.1853 32.4243 35.4546 33.1061C33.0571 33.7227 30.5931 34.0395 28.1184 34.0496C26.2433 34.0647 24.3737 33.8443 22.553 33.3935V5.32229C22.983 5.42146 23.4257 5.51301 23.876 5.58929C24.6147 5.7139 25.3939 5.80544 26.1528 5.86138ZM40.3471 6.07753L39.3352 6.41828C38.4042 6.73106 37.4657 7.01078 36.5221 7.25998C33.7749 7.96596 30.9514 8.3281 28.1158 8.33818C27.4556 8.33818 26.8485 8.32038 26.2616 8.28224L25.4546 8.22883V28.3178V31.0057L26.1477 31.0667C26.7903 31.1227 27.4531 31.1506 28.1209 31.1506C30.3544 31.1412 32.5781 30.8533 34.7412 30.2937C36.5223 29.8469 38.2552 29.2243 39.9145 28.4348L40.3471 28.2263V6.07753Z" fill="#AFB1B8"/>
<path d="M6.73713 42.2124C6.59166 42.0615 6.41629 41.943 6.22236 41.8646C6.02844 41.7862 5.82029 41.7496 5.61141 41.7572C5.38879 41.7542 5.16781 41.7957 4.96127 41.8793C4.7719 41.9547 4.59977 42.068 4.45532 42.2124C4.31245 42.3572 4.20129 42.5304 4.12899 42.721C4.04968 42.9207 4.01014 43.1341 4.01262 43.3491V47.1431C4.00357 47.4104 4.05459 47.6764 4.16187 47.9212C4.25143 48.1156 4.38072 48.2889 4.54133 48.4298C4.69295 48.5575 4.87098 48.6495 5.06246 48.6994C5.24694 48.7512 5.43755 48.7777 5.62911 48.7782C5.84041 48.7803 6.04953 48.7351 6.24131 48.646C6.43095 48.563 6.60277 48.4438 6.74725 48.295C6.88814 48.1476 7.00052 47.9752 7.07865 47.7864C7.15973 47.5951 7.20105 47.3892 7.20007 47.1812V46.7566H6.20842V47.0948C6.21137 47.2103 6.1916 47.3252 6.15024 47.433C6.11794 47.5137 6.06877 47.5866 6.00604 47.6466C5.94461 47.6962 5.87416 47.7334 5.79861 47.7559C5.73164 47.7782 5.6617 47.7902 5.59117 47.7915C5.50263 47.8018 5.41296 47.7885 5.33122 47.7527C5.24948 47.717 5.17858 47.6602 5.1257 47.5881C5.03222 47.4356 4.9864 47.2585 4.99415 47.0795V43.5423C4.988 43.3462 5.02969 43.1515 5.11558 42.9753C5.16706 42.8952 5.2399 42.8313 5.32578 42.7908C5.41166 42.7503 5.50713 42.7349 5.60129 42.7464C5.68676 42.7434 5.7717 42.7612 5.8488 42.7984C5.92591 42.8356 5.99289 42.8911 6.04399 42.96C6.15496 43.1057 6.21298 43.2852 6.20842 43.4686V43.7966H7.18995V43.4101C7.19195 43.1831 7.15073 42.9578 7.06853 42.7464C6.99527 42.5476 6.88251 42.3659 6.73713 42.2124Z" fill="#AFB1B8"/>
<path d="M12.6289 42.1691C12.3127 41.9021 11.9136 41.7546 11.5007 41.7521C11.2987 41.7529 11.0984 41.7891 10.9087 41.8589C10.7161 41.9279 10.5384 42.0332 10.3851 42.1691C10.2208 42.3168 10.0897 42.498 10.0005 42.7006C9.90063 42.9323 9.85146 43.183 9.85634 43.4355V47.0744C9.8495 47.3304 9.89873 47.5847 10.0005 47.8195C10.0903 48.0151 10.2215 48.1887 10.3851 48.328C10.5367 48.4688 10.7147 48.5777 10.9087 48.6485C11.0984 48.7183 11.2987 48.7544 11.5007 48.7553C11.7027 48.7549 11.9031 48.7187 12.0926 48.6485C12.29 48.5767 12.4719 48.468 12.6289 48.328C12.7871 48.1861 12.9145 48.013 13.0033 47.8195C13.1051 47.5847 13.1544 47.3304 13.1475 47.0744V43.4355C13.1524 43.183 13.1032 42.9323 13.0033 42.7006C12.9151 42.5001 12.7878 42.3194 12.6289 42.1691ZM12.166 47.0744C12.1743 47.1714 12.1609 47.269 12.1268 47.3601C12.0926 47.4512 12.0386 47.5334 11.9687 47.6008C11.8377 47.7106 11.6725 47.7708 11.5019 47.7708C11.3313 47.7708 11.1662 47.7106 11.0352 47.6008C10.9652 47.5334 10.9112 47.4512 10.8771 47.3601C10.8429 47.269 10.8295 47.1714 10.8379 47.0744V43.4355C10.8295 43.3385 10.8429 43.2409 10.8771 43.1498C10.9112 43.0587 10.9652 42.9764 11.0352 42.9091C11.1662 42.7993 11.3313 42.7391 11.5019 42.7391C11.6725 42.7391 11.8377 42.7993 11.9687 42.9091C12.0386 42.9764 12.0926 43.0587 12.1268 43.1498C12.1609 43.2409 12.1743 43.3385 12.166 43.4355V47.0744Z" fill="#AFB1B8"/>
<path d="M20.3673 48.6994V41.8107H19.4136L18.1614 45.4572H18.1437L16.8813 41.8107H15.9377V48.6994H16.9218V44.5087H16.9395L17.9033 47.4712H18.3941L19.3655 44.5087H19.3832V48.6994H20.3673Z" fill="#AFB1B8"/>
<path d="M25.9581 42.2937C25.8065 42.1237 25.6153 41.9943 25.4015 41.9173C25.1712 41.8424 24.9302 41.8063 24.6881 41.8105H23.226V48.6993H24.2075V46.0089H24.7134C25.0197 46.0228 25.3244 45.958 25.5988 45.8207C25.822 45.6968 26.0081 45.515 26.1377 45.2943C26.2512 45.1111 26.3277 44.9071 26.3628 44.6942C26.4014 44.435 26.4192 44.173 26.4159 43.911C26.4255 43.5802 26.3932 43.2495 26.3198 42.9269C26.2543 42.6885 26.1299 42.4706 25.9581 42.2937ZM25.4521 44.3941C25.4479 44.5188 25.4168 44.6412 25.361 44.7527C25.3049 44.8586 25.2162 44.9434 25.1081 44.9942C24.9627 45.0593 24.8041 45.0889 24.6451 45.0807H24.1974V42.7387H24.7033C24.8557 42.7312 25.0075 42.7609 25.146 42.8251C25.2475 42.8834 25.3281 42.9724 25.3762 43.0794C25.4299 43.2004 25.4591 43.331 25.4622 43.4634C25.4622 43.6084 25.4622 43.7609 25.4622 43.9211C25.4622 44.0813 25.4723 44.2466 25.4622 44.3941H25.4521Z" fill="#AFB1B8"/>
<path d="M30.6077 41.8107H29.8032L28.2854 48.6994H29.2669L29.5553 47.2194H30.8935L31.1819 48.6994H32.1635L30.6077 41.8107ZM29.702 46.2811L30.1852 43.784H30.2029L30.6836 46.2811H29.702Z" fill="#AFB1B8"/>
<path d="M36.9497 45.9607H36.932L35.4496 41.8107H34.506V48.6994H35.4875V44.557H35.5078L37.0079 48.6994H37.9312V41.8107H36.9497V45.9607Z" fill="#AFB1B8"/>
<path d="M42.9476 41.8107L42.1583 44.5494H42.1381L41.3488 41.8107H40.3091L41.6574 45.7878V48.6994H42.639V45.7878L43.9873 41.8107H42.9476Z" fill="#AFB1B8"/>
<path d="M4 50.6445H4.47306V51.9719H4.79433V50.6445H5.26486V50.3724H4V50.6445Z" fill="#AFB1B8"/>
<path d="M7.97672 50.3724L7.35693 51.9719H7.69845L7.82999 51.6083H8.46748L8.60409 51.9719H8.95319L8.31823 50.3724H7.97672ZM7.92612 51.3387L8.14368 50.7462L8.36123 51.3387H7.92612Z" fill="#AFB1B8"/>
<path d="M11.9079 51.3821H12.2773V51.5881C12.1694 51.6746 12.0358 51.722 11.8978 51.7229C11.8333 51.7265 11.7689 51.7145 11.7099 51.688C11.6509 51.6614 11.5991 51.6211 11.5588 51.5703C11.474 51.4485 11.4322 51.3017 11.4399 51.1533C11.4399 50.7973 11.5942 50.6193 11.9003 50.6193C11.9809 50.6112 12.0617 50.6325 12.128 50.6791C12.1944 50.7257 12.2419 50.7947 12.2621 50.8735L12.5783 50.8125C12.51 50.4997 12.2849 50.3421 11.9003 50.3421C11.6947 50.3366 11.4947 50.4103 11.3413 50.5481C11.2607 50.6276 11.1983 50.7239 11.1586 50.8302C11.1188 50.9365 11.1026 51.0502 11.1111 51.1634C11.1017 51.3823 11.1749 51.5966 11.316 51.7636C11.3943 51.8444 11.4892 51.9071 11.594 51.9475C11.6988 51.9879 11.8111 52.0049 11.9231 51.9975C12.1734 52.0045 12.4165 51.9133 12.6011 51.7432V51.1126H11.9079V51.3821Z" fill="#AFB1B8"/>
<path d="M15.9226 50.3724H15.5988V51.9719H16.7194V51.6998H15.9226V50.3724Z" fill="#AFB1B8"/>
<path d="M19.3175 50.3724H18.9937V51.9719H19.3175V50.3724Z" fill="#AFB1B8"/>
<path d="M22.6365 51.4405L21.9813 50.3724H21.6676V51.9719H21.9686V50.9268L22.6112 51.9719H22.9325V50.3724H22.6365V51.4405Z" fill="#AFB1B8"/>
<path d="M25.6368 51.2675H26.4337V50.9954H25.6368V50.6445H26.4944V50.3724H25.313V51.9719H26.5273V51.6998H25.6368V51.2675Z" fill="#AFB1B8"/>
<path d="M32.9122 51.0031H32.2823V50.3724H31.9611V51.9719H32.2823V51.2726H32.9122V51.9719H33.2335V50.3724H32.9122V51.0031Z" fill="#AFB1B8"/>
<path d="M35.9302 51.2675H36.7296V50.9954H35.9302V50.6445H36.7903V50.3724H35.6089V51.9719H36.8206V51.6998H35.9302V51.2675Z" fill="#AFB1B8"/>
<path d="M40.0233 51.2676C40.3015 51.2244 40.4432 51.0769 40.4432 50.8226C40.4513 50.7546 40.441 50.6856 40.4134 50.623C40.3858 50.5603 40.3419 50.5063 40.2863 50.4666C40.1415 50.3938 39.9799 50.3614 39.8183 50.3725H39.1404V51.972H39.4617V51.3032H39.5249C39.5934 51.299 39.6619 51.3112 39.7247 51.3388C39.7717 51.3678 39.8108 51.4079 39.8386 51.4558L40.1877 51.9644H40.5722L40.3774 51.6516C40.2913 51.4972 40.1699 51.3656 40.0233 51.2676ZM39.6994 51.0464H39.4617V50.6446H39.7146C39.8248 50.6357 39.9357 50.6486 40.041 50.6827C40.0644 50.7034 40.0828 50.7291 40.095 50.7579C40.1072 50.7867 40.1127 50.8179 40.1113 50.8492C40.1098 50.8804 40.1014 50.911 40.0866 50.9385C40.0718 50.966 40.051 50.9899 40.0258 51.0082C39.9202 51.0406 39.8096 51.0535 39.6994 51.0464Z" fill="#AFB1B8"/>
<path d="M43.1096 51.2675H43.9064V50.9954H43.1096V50.6445H43.9697V50.3724H42.7858V51.9719H44V51.6998H43.1096V51.2675Z" fill="#AFB1B8"/>
</g>
<defs>
<filter id="filter0_d_1_766" x="0" y="0" width="48" height="59.9993" filterUnits="userSpaceOnUse" color-interpolation-filters="sRGB">
<feFlood flood-opacity="0" result="BackgroundImageFix"/>
<feColorMatrix in="SourceAlpha" type="matrix" values="0 0 0 0 0 0 0 0 0 0 0 0 0 0 0 0 0 0 127 0" result="hardAlpha"/>
<feOffset dy="4"/>
<feGaussianBlur stdDeviation="2"/>
<feComposite in2="hardAlpha" operator="out"/>
<feColorMatrix type="matrix" values="0 0 0 0 0 0 0 0 0 0 0 0 0 0 0 0 0 0 0.25 0"/>
<feBlend mode="normal" in2="BackgroundImageFix" result="effect1_dropShadow_1_766"/>
<feBlend mode="normal" in="SourceGraphic" in2="effect1_dropShadow_1_766" result="shape"/>
</filter>
</defs>
</svg>
